# xmcd
#
# Track frame offsets:
#	150
#	13497
#	24503
#	39697
#	53685
#	70555
#	86641
#	103379
#	114762
#	128852
#	144283
#	155282
#	167749
#	183017
#
# Disc length: 2573 seconds
# Revision: 0
# Processed by: cddbd v1.5.2PL0 Copyright (c) Steve Scherf et al.
# Submitted via: dBpowerAMP V12.0
#
DISCID=b00a0b0e
DTITLE=Duck and Cover - The Pasadena Recordings
DYEAR=2009
DGENRE=
TTITLE0=Pick Up My Heart
TTITLE1=The Way You Look At Me
TTITLE2=Funnel Of Love
TTITLE3=You Sound So Angry
TTITLE4=Lovestruck
TTITLE5=One Tear Away
TTITLE6=Time Has Forgot
TTITLE7=Square Head Boogie
TTITLE8=Can't Stop Leavin You
TTITLE9=Wall Of Shame
TTITLE10=Window Shopping
TTITLE11=One Way Love
TTITLE12=Fight Or Flight
TTITLE13=Lonesome Train
EXTD=
EXTT0=
EXTT1=
EXTT2=
EXTT3=
EXTT4=
EXTT5=
EXTT6=
EXTT7=
EXTT8=
EXTT9=
EXTT10=
EXTT11=
EXTT12=
EXTT13=
PLAYORDER=
